<?xml version="1.0" standalone="no"?>
<!DOCTYPE svg PUBLIC "-//W3C//DTD SVG 20010904//EN"
 "http://www.w3.org/TR/2001/REC-SVG-20010904/DTD/svg10.dtd">
<svg version="1.0" xmlns="http://www.w3.org/2000/svg"
 width="934.000000pt" height="569.000000pt" viewBox="0 0 934.000000 569.000000"
 preserveAspectRatio="xMidYMid meet">
<metadata>
Created by potrace 1.15, written by Peter Selinger 2001-2017
</metadata>
<g transform="translate(0.000000,569.000000) scale(0.100000,-0.100000)"
fill="#000000" stroke="none">
<path d="M915 5245 c-381 -84 -639 -370 -721 -800 -24 -123 -24 -387 0 -510
83 -434 343 -719 730 -801 95 -20 292 -19 392 2 215 44 398 157 527 326 150
196 217 421 217 728 0 237 -36 410 -122 578 -128 251 -348 420 -620 476 -94
19 -316 20 -403 1z m369 -265 c113 -29 190 -73 277 -160 90 -90 148 -194 187
-338 24 -89 26 -113 26 -292 0 -179 -2 -203 -26 -292 -39 -144 -97 -247 -187
-339 -132 -132 -280 -187 -480 -176 -357 18 -587 279 -620 702 -31 396 106
718 358 844 57 29 136 57 181 64 72 12 211 6 284 -13z"/>
<path d="M2853 4646 c-92 -30 -156 -67 -215 -124 l-48 -46 0 87 0 87 -130 0
-130 0 0 -1060 0 -1060 130 0 130 0 0 386 0 386 47 -41 c55 -49 165 -105 248
-126 86 -22 244 -20 339 5 111 28 190 73 271 155 81 81 131 168 172 300 26 86
27 99 27 300 0 201 -1 214 -27 300 -41 132 -91 219 -172 300 -123 124 -259
175 -459 175 -88 -1 -126 -6 -183 -24z m229 -217 c163 -35 282 -159 334 -350
24 -88 24 -280 0 -368 -39 -143 -127 -264 -228 -313 -256 -125 -522 18 -594
318 -22 91 -22 267 0 358 61 255 263 402 488 355z"/>
<path d="M4362 4650 c-249 -67 -422 -272 -478 -567 -20 -107 -15 -335 10 -428
74 -276 239 -456 472 -515 106 -27 291 -28 396 -1 148 38 261 117 353 245 45
63 92 153 84 160 -4 4 -219 96 -224 96 -2 0 -19 -28 -37 -62 -66 -124 -161
-194 -298 -218 -187 -34 -354 48 -435 213 -39 81 -65 172 -65 229 l0 38 551 0
551 0 -4 148 c-4 126 -9 158 -32 227 -71 208 -209 352 -408 423 -64 22 -92 26
-218 29 -120 2 -158 0 -218 -17z m273 -221 c114 -21 217 -93 269 -188 21 -40
66 -153 66 -168 0 -1 -184 -3 -410 -3 -225 0 -410 2 -410 3 0 12 41 120 60
156 50 99 155 179 260 200 64 13 98 13 165 0z"/>
<path d="M6153 4655 c-115 -32 -222 -106 -297 -206 l-46 -61 0 131 0 131 -130
0 -130 0 0 -755 0 -755 129 0 129 0 5 383 c6 405 11 455 59 588 52 140 132
240 235 291 56 27 77 32 137 32 112 0 187 -51 228 -153 22 -55 23 -65 26 -598
l3 -543 130 0 130 0 -3 593 c-4 578 -4 594 -26 657 -40 120 -121 208 -230 251
-73 29 -268 37 -349 14z"/>
<path d="M8950 1880 l0 -1060 130 0 130 0 0 1060 0 1060 -130 0 -130 0 0
-1060z"/>
<path d="M1020 2163 c0 -613 -3 -771 -14 -824 -39 -183 -151 -279 -327 -279
-167 0 -292 103 -350 289 -9 32 -23 56 -30 56 -8 0 -69 -11 -136 -25 -144 -29
-141 -23 -94 -157 76 -219 226 -360 435 -408 88 -20 262 -20 341 0 198 51 340
184 411 386 l29 84 3 818 3 817 -136 0 -135 0 0 -757z"/>
<path d="M2072 2330 c-324 -87 -532 -382 -532 -755 0 -382 222 -686 556 -760
116 -26 312 -17 418 20 205 72 358 233 438 465 32 94 33 97 33 275 0 178 -1
181 -33 275 -80 232 -232 393 -438 465 -69 24 -98 28 -224 31 -121 3 -157 1
-218 -16z m274 -221 c174 -32 309 -170 361 -369 22 -86 22 -244 0 -330 -54
-205 -190 -341 -375 -371 -232 -38 -439 115 -507 376 -21 78 -21 242 0 320 40
155 135 283 251 337 98 46 169 56 270 37z"/>
<path d="M5405 2336 c-103 -33 -220 -119 -287 -210 l-28 -39 0 121 0 122 -130
0 -130 0 0 -755 0 -755 129 0 128 0 6 363 c6 387 12 448 62 598 31 93 108 214
165 259 67 53 127 75 205 74 40 -1 86 -8 109 -18 21 -9 44 -16 51 -16 9 0 52
161 59 224 1 5 -24 17 -54 27 -66 21 -225 24 -285 5z"/>
<path d="M6553 2335 c-115 -32 -222 -106 -297 -206 l-46 -61 0 131 0 131 -130
0 -130 0 0 -755 0 -755 129 0 129 0 5 383 c6 405 11 455 59 588 52 140 132
240 235 291 56 27 77 32 137 32 112 0 187 -51 228 -153 22 -55 23 -65 26 -598
l3 -543 130 0 130 0 -3 593 c-4 578 -4 594 -26 657 -40 120 -121 208 -230 251
-73 29 -268 37 -349 14z"/>
<path d="M7858 2334 c-180 -43 -338 -200 -364 -360 l-6 -40 103 -23 c57 -13
108 -25 114 -27 6 -3 17 12 24 33 30 85 109 160 195 185 23 7 77 12 121 11
196 -2 305 -109 305 -299 l0 -62 -227 -5 c-254 -5 -303 -13 -433 -75 -101 -47
-197 -143 -230 -227 -29 -74 -39 -239 -20 -324 34 -156 152 -274 311 -310 66
-16 246 -13 312 4 90 23 174 71 243 138 l63 62 18 -97 18 -98 102 0 103 0 0
540 c0 352 -4 557 -11 592 -40 192 -182 336 -380 383 -80 19 -283 19 -361 -1z
m492 -872 c0 -69 -21 -155 -54 -220 -84 -166 -317 -255 -481 -183 -130 57
-163 238 -64 346 79 85 183 113 437 114 l162 1 0 -58z"/>
<path d="M3262 1738 c4 -579 4 -595 26 -658 40 -121 121 -209 230 -251 69 -27
239 -37 324 -20 120 25 242 105 322 212 l46 61 0 -131 0 -131 130 0 130 0 0
755 0 755 -129 0 -129 0 -5 -382 c-6 -406 -11 -456 -59 -589 -52 -140 -132
-240 -235 -291 -142 -70 -290 -30 -354 95 -33 63 -38 162 -39 675 l0 492 -131
0 -130 0 3 -592z"/>
</g>
</svg>
