<?xml version="1.0" standalone="no"?>
<!DOCTYPE svg PUBLIC "-//W3C//DTD SVG 20010904//EN"
 "http://www.w3.org/TR/2001/REC-SVG-20010904/DTD/svg10.dtd">
<svg version="1.0" xmlns="http://www.w3.org/2000/svg"
 width="3400.000000pt" height="1217.000000pt" viewBox="0 0 3400.000000 1217.000000"
 preserveAspectRatio="xMidYMid meet">
<metadata>
Created by potrace 1.15, written by Peter Selinger 2001-2017
</metadata>
<g transform="translate(0.000000,1217.000000) scale(0.100000,-0.100000)"
fill="#000000" stroke="none">
<path d="M9807 10089 c-600 -105 -1052 -546 -1217 -1185 -49 -190 -64 -323
-65 -579 0 -300 22 -447 107 -715 131 -413 426 -758 798 -934 419 -198 949
-193 1360 14 418 210 694 586 824 1120 42 172 51 269 51 515 -1 256 -16 389
-65 579 -166 643 -620 1082 -1225 1186 -157 27 -414 27 -568 -1z m518 -429
c479 -95 791 -486 865 -1085 12 -100 15 -382 5 -472 -36 -313 -95 -498 -220
-689 -248 -381 -705 -545 -1180 -423 -403 103 -699 461 -775 939 -28 179 -32
219 -31 393 0 377 79 677 243 920 58 87 189 215 280 275 228 148 523 200 813
142z"/>
<path d="M33550 8340 l0 -1770 210 0 210 0 0 1770 0 1770 -210 0 -210 0 0
-1770z"/>
<path d="M21550 8883 c0 -670 -5 -1242 -10 -1312 -26 -340 -157 -531 -405
-596 -79 -21 -242 -21 -319 0 -214 57 -363 228 -441 508 -12 41 -21 57 -33 57
-14 0 -319 -63 -409 -85 -30 -7 -29 -26 2 -145 35 -129 127 -315 209 -417 125
-157 311 -276 511 -329 134 -36 392 -45 528 -20 194 37 357 118 489 244 161
154 263 356 303 605 13 78 15 288 15 1385 l0 1292 -220 0 -220 0 0 -1187z"/>
<path d="M12990 9114 c-187 -40 -389 -148 -494 -265 l-46 -51 0 146 0 146
-210 0 -210 0 -2 -1517 c-3 -1508 -3 -1516 -23 -1519 -11 -1 -45 -5 -75 -9
-30 -3 -78 -8 -106 -9 -28 -2 -57 -6 -63 -10 -7 -4 -18 -2 -26 4 -8 7 -20 8
-27 4 -7 -5 -105 -9 -218 -11 -113 -1 -221 -4 -240 -7 -47 -6 -203 13 -211 26
-4 6 -16 7 -27 4 -11 -4 -23 -2 -26 3 -4 5 -28 13 -54 17 -25 4 -61 13 -79 20
-21 9 -34 10 -38 4 -4 -6 -24 -10 -46 -8 -21 1 -42 -1 -45 -5 -4 -4 -13 -2
-20 4 -9 7 -19 7 -33 0 -11 -6 -30 -11 -43 -11 -106 2 -343 -12 -359 -20 -11
-6 -30 -8 -42 -4 -34 11 -197 11 -190 0 4 -6 -1 -6 -13 -2 -39 16 -70 22 -99
21 -18 -2 -39 5 -52 17 -12 11 -27 17 -33 13 -12 -7 -106 -17 -182 -19 -27 0
-48 -2 -48 -3 0 -2 18 -12 40 -23 27 -14 38 -25 34 -35 -6 -15 6 -16 184 -15
12 0 22 -5 22 -10 0 -6 7 -10 15 -10 8 0 15 -4 15 -9 0 -8 8 -10 77 -12 15 0
36 -5 46 -11 13 -6 23 -6 34 3 12 11 17 10 25 -5 7 -13 13 -15 24 -5 7 6 20 9
28 6 8 -3 30 -2 48 4 18 5 59 10 91 10 31 1 57 5 57 10 0 4 -7 6 -15 3 -8 -4
-15 -1 -15 5 0 14 16 14 41 0 11 -5 35 -12 54 -13 25 -3 32 0 28 10 -3 8 1 14
11 14 10 0 13 -6 10 -15 -5 -12 2 -15 29 -15 20 0 48 5 63 10 15 6 57 11 95
11 54 1 67 4 62 15 -6 17 9 18 25 2 10 -10 15 -10 22 2 5 8 10 11 10 5 0 -5 4
-4 9 4 8 13 12 13 26 1 10 -8 38 -13 71 -12 43 1 62 -4 84 -20 17 -12 45 -21
67 -22 24 -1 37 -5 36 -13 -4 -18 35 -36 61 -29 15 4 28 -1 40 -15 12 -15 21
-18 30 -10 9 7 16 7 25 -2 10 -9 14 -8 22 6 11 19 49 23 66 6 8 -8 17 -8 30 0
14 7 23 7 32 -2 8 -8 14 -9 19 -1 4 6 19 14 34 17 15 4 33 14 42 22 16 16 38
20 50 8 11 -11 67 -13 103 -3 18 4 49 4 70 0 23 -6 42 -5 49 1 7 6 32 9 56 8
23 -1 55 3 69 9 15 6 31 7 40 1 22 -14 42 -11 35 6 -6 17 9 21 20 4 3 -6 22
-9 40 -7 l34 4 0 -208 0 -208 210 0 210 0 0 203 0 204 30 -5 c17 -2 30 0 30 5
0 5 15 9 33 9 17 0 50 3 72 7 25 5 35 4 26 -1 -16 -11 3 -27 20 -16 6 3 22 1
35 -6 16 -9 27 -10 36 -3 16 13 142 17 134 5 -6 -11 157 -8 196 2 19 6 28 3
36 -10 8 -15 18 -16 68 -10 33 5 77 7 99 7 22 -1 61 5 87 13 46 14 93 11 115
-6 7 -6 13 -4 16 4 4 9 8 10 14 2 4 -6 37 -14 73 -16 36 -3 74 -8 85 -12 16
-6 17 -6 5 3 -11 8 0 11 48 12 34 0 72 1 85 2 12 1 28 -2 34 -6 19 -12 91 -11
106 1 10 9 22 9 46 1 17 -6 40 -9 51 -6 11 3 22 1 25 -3 7 -11 64 -10 71 1 7
12 121 1 144 -13 14 -9 22 -9 34 1 14 11 16 11 16 -3 0 -13 6 -15 28 -10 15 4
32 11 38 15 6 5 15 5 20 0 5 -5 25 -12 44 -16 19 -3 60 -10 90 -16 30 -6 71
-10 90 -9 54 2 142 9 170 13 14 2 31 5 38 5 7 1 11 6 8 11 -3 5 13 5 37 -1 23
-5 60 -7 82 -4 22 3 47 1 54 -3 15 -10 72 6 83 22 4 7 11 7 20 0 7 -6 27 -13
43 -17 38 -8 135 8 144 23 5 8 22 8 62 1 30 -6 89 -8 134 -4 44 4 85 6 90 6
228 -16 421 -17 455 -4 14 5 51 9 83 8 31 -1 57 3 57 8 0 5 15 6 33 2 17 -4
59 -9 92 -12 33 -3 66 -7 73 -9 7 -3 24 1 38 7 20 9 35 8 75 -6 27 -10 56 -16
64 -12 8 3 17 1 19 -3 3 -5 22 -12 43 -16 117 -22 140 -26 161 -27 12 0 22 -6
22 -14 0 -8 10 -14 23 -14 12 0 56 -9 97 -19 41 -10 77 -14 80 -10 7 11 38 5
52 -9 7 -7 25 -12 40 -12 16 0 40 -7 53 -16 31 -20 64 -12 45 11 -7 8 -8 15
-2 15 5 0 16 -9 23 -20 11 -15 27 -20 74 -21 33 -2 71 -8 85 -16 14 -7 33 -10
44 -7 10 3 28 2 40 -4 19 -9 57 -16 186 -37 19 -3 57 -12 85 -20 27 -7 84 -19
125 -25 183 -29 293 -52 357 -75 37 -14 76 -25 86 -25 10 0 27 -10 37 -22 13
-16 30 -23 66 -25 27 -1 83 -5 124 -8 41 -3 129 -4 195 -3 122 2 175 2 255 -2
91 -3 195 3 207 12 30 24 92 49 133 54 99 13 136 40 128 95 -3 26 -20 30 -78
17 -118 -27 -239 -48 -270 -47 -19 0 -57 -2 -85 -5 -230 -27 -319 -35 -376
-35 -36 0 -69 -1 -75 -2 -5 -1 -16 0 -24 3 -8 3 -41 13 -72 23 -31 9 -62 22
-67 29 -6 7 -33 16 -59 20 -26 3 -65 13 -87 20 -22 8 -67 22 -100 31 -33 9
-72 23 -87 31 -14 8 -37 14 -51 14 -14 0 -47 4 -74 9 -26 6 -93 18 -148 28
-55 9 -103 22 -107 28 -6 7 -10 7 -15 0 -15 -20 -361 22 -445 54 -15 6 -57 13
-93 17 -36 4 -68 11 -71 15 -10 16 -23 9 -17 -8 5 -14 1 -13 -19 5 -14 13 -29
22 -34 20 -5 -1 -20 4 -32 11 -13 7 -34 10 -47 7 -15 -4 -37 1 -58 13 -34 19
-50 17 -58 -7 -3 -10 -11 -8 -31 7 -25 20 -75 30 -183 35 -27 1 -66 5 -85 9
-19 4 -48 9 -65 12 -16 3 -44 8 -61 12 -18 3 -39 1 -48 -4 -12 -6 -35 -3 -73
9 -43 15 -58 16 -64 7 -9 -15 -49 -23 -49 -10 0 6 -12 6 -29 1 -15 -4 -34 -4
-41 0 -8 5 -33 7 -57 5 -24 -2 -55 2 -70 10 -15 8 -31 11 -37 7 -6 -3 -17 -7
-26 -8 -64 -8 -94 -15 -105 -24 -9 -7 -21 -7 -40 0 -40 15 -145 11 -145 -6 0
-17 -1 -17 -36 1 -26 13 -29 13 -32 0 -4 -17 -38 -20 -47 -5 -4 6 -11 7 -17 4
-6 -4 -42 -6 -81 -5 -47 1 -73 -2 -78 -10 -5 -9 -51 -12 -174 -11 -96 1 -174
-2 -185 -8 -12 -6 -21 -7 -25 0 -7 11 -355 9 -355 -3 0 -4 -15 -1 -33 7 -19 7
-74 15 -123 15 -153 4 -193 6 -200 14 -13 12 -74 8 -74 -5 0 -8 -3 -9 -8 -3
-15 20 -104 24 -127 5 -11 -10 -18 -10 -29 -1 -9 8 -71 13 -174 15 -87 2 -164
6 -170 10 -6 3 -32 8 -59 11 -75 7 -136 15 -156 21 -10 3 -25 0 -33 -7 -10 -8
-18 -9 -22 -2 -4 5 -29 11 -56 12 -26 0 -51 3 -55 5 -3 2 -30 0 -59 -6 -37 -6
-58 -6 -66 1 -7 6 -16 8 -19 4 -4 -3 -13 -1 -20 5 -8 7 -17 9 -21 5 -3 -4 -26
-8 -49 -10 -23 -1 -76 -5 -117 -8 -41 -3 -93 -7 -115 -10 -71 -9 -177 -6 -190
5 -9 7 -26 7 -57 -1 -83 -23 -78 -51 -78 407 l0 406 44 -49 c55 -61 159 -132
272 -184 327 -154 750 -123 1050 76 245 163 408 443 469 805 26 149 31 461 11
598 -46 308 -144 533 -311 710 -150 160 -335 258 -563 297 -106 19 -344 18
-432 -1z m338 -395 c236 -62 406 -242 495 -524 54 -170 68 -474 30 -641 -47
-202 -126 -348 -251 -466 -203 -191 -508 -232 -767 -104 -240 119 -388 382
-414 739 -9 130 7 311 40 440 26 105 92 244 154 326 160 211 442 302 713 230z"/>
<path d="M15372 9110 c-384 -83 -657 -337 -801 -743 -62 -176 -75 -268 -75
-512 0 -256 13 -353 75 -538 176 -532 577 -809 1134 -784 398 18 658 160 867
471 33 50 75 121 94 158 l35 68 -48 21 c-143 63 -281 122 -300 130 -21 8 -26
3 -54 -54 -116 -229 -286 -365 -503 -402 -468 -79 -787 179 -865 702 -6 39
-11 81 -11 92 l0 21 925 0 925 0 0 174 c0 244 -32 410 -115 591 -71 156 -195
311 -335 417 -88 68 -244 142 -365 174 -89 24 -122 27 -295 30 -167 3 -209 1
-288 -16z m433 -386 c224 -53 395 -221 481 -472 19 -53 34 -105 34 -114 0 -17
-39 -18 -685 -18 l-685 0 6 28 c79 344 301 564 596 591 93 8 177 3 253 -15z"/>
<path d="M18250 9116 c-243 -54 -458 -201 -592 -403 l-43 -65 -3 221 -2 221
-210 0 -210 0 0 -1260 0 -1260 209 0 210 0 4 633 c3 608 4 636 25 732 52 235
97 353 184 486 135 207 317 320 515 320 217 0 347 -98 405 -307 22 -78 22 -87
26 -971 l3 -893 210 0 210 0 -3 993 -3 992 -23 75 c-42 136 -89 217 -177 305
-141 142 -291 196 -540 194 -77 -1 -165 -7 -195 -13z"/>
<path d="M23165 9110 c-228 -49 -398 -137 -556 -287 -111 -105 -189 -213 -260
-358 -101 -207 -139 -381 -139 -635 0 -254 38 -428 139 -635 161 -329 413
-539 760 -633 90 -24 111 -26 311 -26 200 0 221 2 311 26 203 55 355 138 495
271 115 108 193 215 265 362 101 207 139 381 139 635 0 254 -38 428 -139 635
-161 329 -416 541 -760 633 -83 22 -121 25 -286 28 -159 3 -204 0 -280 -16z
m360 -375 c253 -24 488 -220 595 -498 72 -184 91 -434 50 -637 -93 -455 -416
-718 -832 -678 -407 39 -689 411 -689 908 -1 494 282 868 687 909 43 4 90 6
104 5 14 -2 52 -6 85 -9z"/>
<path d="M28268 9111 c-201 -56 -403 -200 -516 -370 l-42 -63 0 206 0 206
-210 0 -210 0 0 -1260 0 -1260 209 0 209 0 5 578 c6 629 11 699 66 914 54 209
136 370 249 490 122 130 246 189 394 189 81 0 190 -21 238 -46 16 -8 35 -15
43 -15 9 0 26 56 55 186 23 102 40 190 37 194 -3 5 -43 21 -88 36 -71 23 -102
28 -227 31 -118 2 -157 -1 -212 -16z"/>
<path d="M30030 9116 c-243 -54 -458 -201 -592 -403 l-43 -65 -3 221 -2 221
-210 0 -210 0 0 -1260 0 -1260 209 0 209 0 5 613 c5 657 8 701 61 902 86 321
283 564 516 636 74 23 204 27 272 8 147 -39 234 -131 280 -295 22 -78 22 -87
26 -971 l3 -893 210 0 210 0 -3 993 -3 992 -23 75 c-42 136 -89 217 -177 305
-141 142 -291 196 -540 194 -77 -1 -165 -7 -195 -13z"/>
<path d="M31980 9111 c-315 -68 -538 -260 -628 -541 -12 -36 -24 -81 -27 -100
l-6 -35 168 -38 c92 -21 177 -41 189 -43 18 -5 24 3 41 54 41 119 119 210 232
271 84 45 161 62 276 62 197 0 319 -44 419 -150 80 -86 109 -173 122 -363 l7
-108 -304 0 c-215 0 -335 -5 -409 -15 -380 -54 -644 -212 -766 -460 -63 -127
-77 -204 -72 -395 4 -141 7 -163 35 -245 41 -120 74 -175 151 -257 143 -151
326 -218 597 -218 204 0 351 35 500 120 81 47 188 139 245 211 l38 48 33 -170
33 -169 168 0 168 0 0 886 c0 856 -1 889 -21 987 -70 348 -274 563 -619 655
-82 21 -121 25 -290 28 -162 3 -209 1 -280 -15z m785 -1463 c-17 -258 -79
-413 -222 -548 -82 -79 -195 -139 -307 -165 -80 -19 -229 -21 -299 -5 -153 34
-257 148 -275 302 -16 138 20 253 106 336 62 61 126 94 237 127 111 32 230 42
533 44 l233 1 -6 -92z"/>
<path d="M24892 8098 l3 -993 23 -75 c42 -136 89 -217 177 -305 139 -139 290
-195 532 -195 179 0 297 26 438 98 132 66 274 194 357 319 l43 65 3 -221 2
-221 210 0 210 0 0 1260 0 1260 -209 0 -209 0 -5 -612 c-5 -658 -8 -702 -61
-903 -86 -321 -283 -564 -516 -636 -74 -23 -204 -27 -272 -8 -147 39 -234 131
-280 295 -22 78 -22 87 -26 972 l-3 892 -210 0 -210 0 3 -992z"/>
<path d="M2280 6849 c0 -7 -10 -9 -25 -5 -14 4 -36 4 -50 0 -20 -5 -23 -9 -15
-19 9 -11 6 -12 -12 -8 -13 2 -32 8 -43 13 -40 17 -54 19 -60 10 -3 -5 -19 -7
-35 -3 -24 4 -30 2 -30 -12 0 -14 -3 -15 -14 -6 -7 6 -21 9 -30 5 -9 -3 -16
-1 -16 5 0 6 -7 11 -15 11 -8 0 -15 -5 -15 -11 0 -6 -6 -9 -12 -6 -50 18 -61
19 -55 4 5 -13 -2 -15 -41 -12 -26 2 -64 7 -84 10 -50 9 -83 -2 -67 -21 15
-18 -11 -20 -29 -2 -10 10 -15 10 -22 -2 -7 -11 -13 -12 -32 -2 -30 15 -142
23 -193 12 -22 -4 -91 -11 -154 -15 -63 -3 -119 -9 -124 -12 -6 -3 -24 -7 -41
-9 -17 -1 -32 -7 -34 -13 -2 -6 -10 -11 -18 -11 -8 0 -14 -4 -14 -9 0 -5 -14
-14 -31 -20 -27 -9 -30 -13 -18 -27 12 -14 14 -14 26 2 11 15 13 16 13 2 0
-10 14 -21 33 -27 27 -9 40 -8 66 5 34 17 190 22 214 7 14 -9 66 -4 87 7 9 5
23 4 32 -1 11 -6 20 -4 28 6 7 8 17 12 22 9 5 -3 17 1 26 9 14 12 32 13 92 6
74 -8 273 -5 289 5 10 7 80 1 88 -8 10 -10 25 -7 18 4 -11 17 27 11 44 -7 20
-23 48 -25 56 -6 4 11 1 13 -11 9 -25 -10 -36 4 -17 22 12 12 18 13 21 4 2 -7
13 -10 27 -6 12 3 26 1 29 -5 9 -13 46 -15 46 -2 0 5 18 8 40 6 25 -2 40 1 40
7 0 6 3 8 7 5 3 -4 12 -2 20 4 10 9 13 8 13 -1 0 -8 3 -10 7 -7 3 4 12 2 20
-4 7 -7 13 -7 13 -2 0 13 53 3 62 -11 4 -6 0 -14 -9 -17 -14 -5 -13 -7 5 -11
18 -5 22 -2 22 17 0 26 -5 26 155 9 39 -4 75 -7 81 -6 7 1 14 -4 18 -13 4 -11
-1 -15 -19 -15 -26 0 -41 -15 -26 -24 5 -4 13 -1 16 5 4 5 14 8 23 4 8 -3 19
0 23 6 5 9 14 8 34 -5 15 -10 25 -14 21 -8 -8 14 24 25 38 13 6 -5 24 -8 38
-7 16 2 29 -3 32 -10 3 -8 1 -14 -5 -14 -6 0 -7 -5 -4 -10 4 -6 11 -8 16 -4 5
3 18 0 27 -7 14 -11 15 -11 5 1 -20 22 -15 32 7 18 17 -11 22 -10 31 2 8 11
12 12 16 3 6 -15 43 -17 43 -3 0 18 50 10 62 -10 7 -11 22 -20 32 -20 20 0 20
0 0 14 -10 8 -16 18 -12 22 4 4 14 2 21 -4 9 -8 24 -9 47 -2 24 7 36 6 41 -1
4 -7 12 -9 18 -5 6 4 23 0 39 -8 19 -10 33 -11 43 -5 11 8 10 9 -5 7 -10 -2
-21 2 -23 8 -2 6 10 8 33 6 32 -4 36 -2 30 13 -5 14 -3 16 11 9 26 -11 97 -11
105 0 4 7 15 6 30 -1 34 -17 86 -14 97 5 8 13 12 14 25 3 12 -10 19 -11 30 -2
16 14 29 0 21 -21 -3 -8 6 -25 20 -38 14 -13 25 -20 25 -15 0 4 -8 14 -17 22
-13 10 -14 16 -6 19 7 3 9 12 6 20 -4 11 6 14 46 16 28 0 56 1 63 2 7 1 18
-10 25 -24 10 -19 13 -21 13 -7 0 10 5 15 10 12 6 -3 10 3 10 14 0 18 6 21 49
21 28 0 52 -4 55 -8 3 -5 26 -9 51 -11 28 -1 44 2 41 7 -4 6 8 7 31 1 21 -4
39 -13 41 -18 2 -6 11 -11 20 -11 13 0 12 3 -4 14 -10 8 -16 17 -13 21 10 9
132 14 144 5 15 -11 86 0 78 13 -4 6 -1 7 7 2 16 -10 70 -13 70 -4 0 12 55 -5
67 -20 11 -14 12 -13 13 7 0 23 24 30 36 11 4 -8 9 -7 15 2 6 10 9 11 9 2 0
-7 9 -13 20 -13 11 0 20 6 20 13 0 9 13 13 40 11 22 -1 40 1 40 5 0 3 17 5 38
5 89 -4 85 -2 78 -30 -5 -18 -3 -24 5 -18 7 4 9 3 6 -3 -4 -6 0 -18 7 -28 13
-18 14 -18 25 3 6 12 18 22 25 22 14 0 15 27 2 48 -9 15 -5 15 28 2 14 -5 26
-16 26 -25 0 -8 7 -15 17 -15 9 0 13 3 10 7 -4 3 -2 12 4 20 14 16 55 17 64 3
5 -8 11 -8 20 0 10 8 14 4 18 -16 4 -23 2 -25 -21 -19 -21 5 -24 3 -19 -14 3
-12 2 -23 -2 -26 -15 -9 -81 16 -91 35 -15 28 -28 25 -22 -6 3 -20 0 -26 -17
-31 -11 -3 -21 -9 -21 -14 0 -13 52 -2 61 12 5 9 17 6 43 -9 20 -12 36 -17 36
-12 0 5 7 7 15 4 9 -4 15 0 15 10 0 14 12 20 33 17 4 0 7 10 7 23 0 14 4 27 8
30 12 7 52 -22 52 -37 0 -7 14 -21 32 -31 31 -19 32 -19 46 2 l14 22 34 -21
c19 -11 34 -16 34 -10 0 6 7 11 15 11 8 0 15 -4 15 -9 0 -8 45 -7 113 3 15 2
27 0 27 -5 0 -5 12 -9 27 -9 25 0 26 -1 11 -16 -14 -15 -56 -20 -210 -28 -16
0 -28 -5 -28 -10 0 -4 -9 -6 -19 -3 -21 5 -34 -14 -26 -35 7 -18 115 -22 115
-5 0 9 3 8 9 -1 7 -11 16 -10 49 7 48 25 52 25 52 8 0 -7 9 -18 21 -25 12 -8
18 -9 15 -3 -8 13 45 19 66 7 11 -7 29 -6 53 1 23 7 46 8 60 3 20 -8 49 -4
113 15 31 10 29 -12 -3 -27 -14 -6 -25 -15 -25 -20 0 -5 -9 -4 -20 2 -13 7
-20 7 -20 1 0 -6 -7 -8 -15 -5 -9 4 -18 -1 -21 -11 -5 -13 -9 -14 -15 -3 -8
11 -11 11 -18 -1 -7 -11 -11 -10 -20 5 -9 14 -14 15 -17 6 -3 -6 -10 -10 -15
-6 -5 3 -9 0 -9 -5 0 -6 -14 -11 -31 -11 -21 0 -28 -4 -23 -12 6 -10 4 -10 -7
0 -18 16 -29 15 -29 -3 0 -10 -10 -15 -27 -15 -16 0 -59 -3 -98 -5 -38 -3 -86
-4 -105 -4 -19 1 -42 1 -50 1 -8 -1 -62 -4 -120 -8 -58 -4 -130 -7 -160 -6
-46 0 -56 -3 -56 -17 0 -13 10 -17 41 -18 22 -1 50 -2 63 -2 13 -1 69 -8 125
-16 102 -16 102 -16 120 6 16 20 19 21 35 5 23 -20 32 -20 32 -1 0 19 14 19
29 2 8 -10 38 -13 118 -10 60 1 127 3 151 3 23 0 42 5 42 11 0 6 7 6 20 -1 14
-7 20 -21 20 -44 0 -20 6 -36 14 -39 7 -3 14 -17 14 -31 0 -24 -1 -25 -24 -8
-19 13 -22 23 -18 46 5 24 4 28 -11 23 -9 -4 -26 -7 -36 -7 -11 0 -17 -4 -14
-10 8 -13 -5 -13 -25 0 -10 6 -21 3 -37 -12 -18 -17 -24 -18 -28 -7 -5 14 -29
21 -65 20 -8 -1 -44 0 -80 1 -102 2 -109 2 -218 -5 -57 -3 -109 -11 -116 -16
-7 -6 -33 -13 -57 -16 -44 -6 -80 -25 -46 -25 18 0 19 -19 2 -33 -5 -5 1 -5
15 -1 14 4 34 8 45 9 11 1 23 3 26 4 4 0 10 11 13 24 6 21 7 21 20 5 16 -22
26 -23 26 -3 0 12 4 13 25 3 25 -11 34 -28 15 -28 -5 0 -10 6 -10 13 0 8 -3 8
-8 1 -4 -6 -15 -13 -24 -17 -39 -14 -15 -24 35 -14 28 5 65 9 80 9 24 -1 27 1
17 13 -8 10 -9 15 -2 15 6 0 14 -5 18 -11 5 -8 10 -6 16 5 9 15 11 16 21 2 10
-13 53 -21 94 -17 6 1 14 9 16 19 4 16 5 16 6 0 0 -10 7 -18 14 -19 73 -6 92
-4 107 11 12 12 20 14 33 6 13 -8 20 -8 26 2 6 10 15 9 43 -2 19 -9 38 -12 42
-9 9 9 7 -12 -4 -41 -6 -16 -17 -26 -30 -26 -11 0 -20 -4 -20 -8 0 -4 -16 -6
-35 -4 -25 3 -35 0 -35 -10 0 -16 -42 -19 -52 -4 -5 7 -8 6 -8 -3 0 -7 -6 -11
-15 -7 -23 8 -18 -8 10 -34 19 -18 25 -20 25 -8 0 19 39 31 57 17 6 -6 17 -8
23 -4 5 3 10 -1 10 -9 0 -10 13 -16 42 -18 23 -2 43 -9 46 -16 3 -10 -13 -12
-77 -8 -45 3 -81 1 -81 -4 0 -5 -12 -3 -27 5 -23 12 -28 12 -39 -3 -8 -9 -14
-13 -14 -8 0 5 -7 3 -15 -4 -9 -8 -15 -9 -15 -2 0 7 -10 6 -27 -3 -19 -10 -31
-11 -40 -4 -6 6 -16 8 -21 5 -17 -10 -85 -20 -144 -20 -56 -1 -74 -10 -43 -22
25 -10 17 -21 -17 -26 -22 -4 -37 1 -50 14 -21 21 -73 15 -64 -8 7 -19 -9 -18
-29 2 -15 15 -15 14 -10 -9 4 -15 2 -28 -5 -32 -9 -6 -9 -10 1 -16 22 -13 42
-11 36 5 -9 23 23 12 44 -15 16 -20 18 -21 13 -4 -3 13 0 11 10 -6 8 -15 24
-29 36 -32 11 -3 20 -11 20 -19 0 -10 -20 -14 -81 -15 -82 -2 -112 -13 -102
-39 3 -8 0 -14 -7 -14 -7 0 -10 8 -7 20 7 29 -23 26 -57 -5 -14 -13 -26 -20
-26 -15 0 4 -13 3 -28 -2 -26 -10 -27 -13 -18 -44 6 -19 15 -34 19 -34 5 0 6
4 3 9 -10 16 5 41 24 41 10 0 21 6 23 13 4 9 8 9 15 -2 5 -7 14 -11 20 -7 16
10 25 -13 12 -29 -9 -11 -7 -12 9 -8 12 3 21 9 21 13 0 14 51 21 65 10 10 -8
19 -8 33 -1 11 6 22 7 26 4 3 -3 6 8 6 24 0 17 -5 33 -11 35 -7 2 -10 10 -8
16 3 9 12 6 28 -9 18 -17 20 -23 9 -30 -11 -7 -10 -11 2 -22 25 -22 69 -37 76
-26 4 7 10 6 19 -1 9 -8 14 -6 19 6 9 23 -9 41 -26 27 -9 -8 -17 -7 -26 3 -11
12 -9 14 7 14 11 0 23 5 27 11 4 8 9 7 15 -2 4 -8 14 -14 21 -14 11 0 15 -37
9 -76 -1 -4 -25 -10 -53 -13 -29 -4 -58 -12 -64 -17 -8 -7 -14 -6 -19 1 -9 15
-25 12 -25 -6 0 -10 -5 -12 -12 -7 -14 8 -78 11 -78 3 0 -3 -19 -6 -42 -8 -23
-1 -45 -8 -49 -13 -5 -8 -9 -8 -13 0 -12 18 -76 14 -76 -5 0 -12 6 -15 24 -10
36 9 39 -7 5 -26 -27 -16 -29 -16 -29 1 0 20 -37 58 -46 48 -4 -4 -1 -13 5
-21 16 -19 5 -41 -14 -26 -9 7 -16 6 -24 -4 -14 -17 0 -29 23 -20 9 4 16 1 16
-6 0 -9 4 -9 13 -2 6 5 21 6 32 2 11 -4 26 -5 34 -2 7 3 17 -1 22 -9 8 -12 10
-12 18 0 5 8 14 10 22 6 9 -6 11 -4 6 7 -4 12 -1 14 14 11 10 -3 17 -9 14 -13
-3 -4 3 -14 12 -21 14 -12 17 -12 21 0 3 10 9 7 18 -10 9 -17 13 -19 14 -8 0
9 -7 22 -15 29 -9 7 -14 15 -11 17 8 9 126 11 126 2 0 -5 7 -9 16 -9 21 0 12
-24 -11 -28 -9 -2 -15 0 -11 6 3 5 -1 16 -10 23 -13 11 -15 9 -12 -17 2 -20
-1 -29 -12 -29 -8 0 -16 -9 -18 -19 -3 -14 0 -17 12 -13 12 5 16 0 16 -18 0
-20 -6 -25 -37 -30 -21 -4 -45 -9 -54 -11 -12 -3 -20 5 -27 26 -15 41 -24 38
-16 -4 9 -50 -1 -59 -42 -36 -38 22 -48 25 -40 11 3 -5 -1 -12 -10 -15 -8 -3
-13 -9 -10 -14 2 -4 -25 -8 -61 -9 -69 -1 -85 -11 -79 -48 2 -11 1 -15 -1 -8
-2 7 -13 15 -23 18 -11 4 -17 12 -13 20 4 12 -4 15 -35 13 -29 -1 -39 -5 -35
-15 3 -7 15 -13 27 -13 11 0 29 -7 39 -14 19 -15 24 -41 5 -30 -7 4 -5 -2 5
-13 9 -11 15 -22 12 -25 -3 -3 6 -4 20 -3 14 2 27 -1 31 -6 3 -5 9 -7 14 -4 4
3 10 -2 14 -10 3 -8 12 -15 19 -15 8 0 22 -8 31 -19 15 -17 15 -19 1 -25 -27
-10 -57 -7 -74 8 -21 18 -81 31 -81 17 0 -11 -52 -5 -81 10 -9 4 -50 9 -92 10
-43 2 -77 6 -77 10 0 4 10 15 21 23 16 11 20 22 17 45 -5 35 13 41 46 16 29
-22 49 -19 41 6 -6 18 -5 19 14 7 17 -10 23 -10 33 1 7 8 8 11 2 8 -6 -4 -19
2 -29 13 -15 16 -19 17 -31 5 -15 -14 -44 -10 -44 6 0 5 -18 8 -39 7 -21 -2
-37 -7 -34 -11 5 -9 -58 1 -93 14 -27 10 -46 -3 -39 -27 5 -16 3 -15 -11 4
-19 25 -36 30 -28 7 4 -10 0 -15 -11 -15 -11 0 -15 5 -11 15 6 17 -5 20 -21 4
-8 -8 -13 -8 -17 0 -10 16 -99 14 -93 -1 2 -7 16 -12 31 -10 14 2 33 -1 42 -6
13 -7 10 -11 -16 -22 -27 -11 -33 -11 -41 1 -6 9 -12 10 -16 4 -17 -22 -36
-16 -31 10 4 20 1 25 -15 25 -15 0 -18 -5 -13 -20 3 -11 9 -28 12 -38 4 -15
-3 -23 -33 -36 -37 -17 -46 -21 -105 -45 -19 -7 -28 -7 -28 0 0 6 -7 3 -16 -5
-18 -18 -26 -20 -39 -7 -15 13 -68 24 -60 11 11 -17 -47 9 -61 28 -11 13 -13
14 -14 3 0 -12 -3 -12 -12 -3 -14 14 -106 16 -158 3 -40 -9 -85 3 -75 20 7 11
-21 9 -140 -10 -55 -9 -122 -4 -131 10 -3 5 0 9 5 9 6 0 11 6 11 14 0 11 -8
12 -42 4 -24 -5 -68 -6 -98 -2 -30 4 -59 6 -65 4 -5 -1 -54 -3 -108 -4 -72 0
-96 -4 -93 -13 4 -8 -1 -10 -16 -4 -29 10 -98 -8 -98 -25 0 -8 -4 -14 -10 -14
-5 0 -10 -7 -10 -15 0 -8 -4 -15 -10 -15 -18 0 -11 40 8 41 9 1 2 6 -15 11
-41 13 -63 -2 -63 -43 0 -31 -23 -41 -34 -14 -3 8 -1 15 4 15 6 0 10 7 10 15
0 8 5 15 12 15 6 0 8 3 4 7 -4 4 -34 8 -66 9 -33 2 -87 5 -120 8 -38 3 -59 2
-55 -4 3 -6 -1 -7 -10 -3 -12 4 -13 8 -5 13 9 6 9 9 1 15 -7 4 -18 1 -26 -5
-11 -9 -26 -10 -55 -2 -22 5 -74 9 -115 7 -42 -1 -78 2 -81 7 -4 7 -9 7 -13 0
-3 -5 -23 -13 -43 -16 -30 -5 -36 -3 -32 9 4 10 0 15 -15 15 -13 0 -21 -6 -21
-16 0 -14 -3 -15 -22 -2 -13 7 -35 19 -49 25 -25 11 -26 10 -21 -10 5 -19 3
-20 -10 -9 -10 8 -17 9 -20 3 -2 -7 -22 -6 -58 2 -31 8 -61 12 -68 9 -7 -2
-12 3 -12 12 0 9 -5 16 -11 16 -6 0 -9 -7 -5 -15 8 -22 -12 -18 -24 5 -12 22
-31 27 -27 8 1 -8 -7 -12 -20 -10 -16 2 -22 -3 -25 -20 -2 -19 -9 -23 -38 -24
-19 0 -68 -8 -108 -17 -40 -10 -107 -17 -147 -17 l-74 0 11 -30 c5 -17 19 -35
30 -41 18 -10 19 -9 8 13 l-11 23 20 -24 c17 -19 24 -21 35 -11 8 6 39 11 68
10 101 -3 128 0 128 13 0 10 18 13 68 12 77 -1 115 -16 131 -52 6 -14 17 -23
24 -20 7 3 24 -1 37 -8 13 -7 30 -11 37 -8 7 3 19 0 27 -6 7 -6 76 -17 154
-24 83 -8 147 -19 156 -26 10 -8 28 -11 46 -7 17 3 30 2 30 -3 0 -4 18 -8 40
-8 22 0 40 4 40 9 0 5 7 5 17 -1 12 -6 20 -5 29 7 6 9 27 17 45 18 19 1 65 9
103 17 38 8 76 13 84 9 11 -4 14 -1 9 11 -6 15 -3 16 13 7 14 -7 20 -7 20 0 0
19 28 10 44 -15 13 -19 25 -25 54 -25 56 1 202 26 214 38 7 7 19 5 38 -6 27
-15 30 -15 49 2 15 13 24 16 33 8 8 -6 40 -7 88 -2 41 4 82 4 90 1 23 -10 68
-5 85 9 12 10 16 10 20 -2 4 -10 19 -14 43 -13 20 1 47 -2 60 -7 31 -11 74
-20 92 -20 126 4 155 8 152 20 -2 10 2 10 20 0 45 -24 190 -24 291 1 45 11
102 23 127 26 114 15 182 20 186 14 2 -4 13 -9 24 -12 17 -4 19 -3 9 9 -17 21
4 18 45 -7 35 -20 42 -17 37 14 0 4 3 7 9 7 5 0 10 -5 10 -11 0 -8 6 -7 16 2
15 12 16 11 9 -10 -5 -15 -4 -21 3 -17 6 3 13 2 17 -4 10 -16 25 -12 25 6 0
12 7 15 25 12 19 -4 25 -1 25 13 0 25 26 14 34 -13 4 -17 8 -19 20 -9 11 9 15
9 18 0 3 -9 11 -10 24 -4 30 13 58 14 67 1 5 -8 9 -7 16 3 6 9 11 10 15 2 5
-7 15 -7 32 -1 18 7 23 7 18 -1 -4 -7 2 -10 17 -8 13 2 30 0 37 -4 7 -5 12 -4
12 2 0 6 5 11 10 11 6 0 10 -7 10 -15 0 -8 5 -15 10 -15 6 0 10 5 10 10 0 16
19 12 49 -9 44 -32 78 -36 86 -12 5 16 10 18 29 11 25 -9 118 -22 176 -25 20
0 41 -5 48 -9 8 -5 18 -1 27 10 10 14 16 16 27 7 7 -6 58 -21 113 -32 92 -18
101 -19 113 -4 11 16 12 16 12 0 0 -9 5 -17 10 -17 6 0 10 7 10 15 0 8 4 15 9
15 5 0 7 -9 4 -20 -3 -11 0 -20 6 -20 10 0 15 14 12 33 -2 12 17 8 21 -5 2 -6
23 -13 46 -14 23 -1 39 2 36 7 -3 5 2 9 10 9 9 0 16 -8 16 -17 0 -12 8 -18 25
-19 16 -1 25 3 25 13 0 13 3 13 15 3 11 -9 15 -9 15 -1 0 7 5 9 12 5 6 -4 17
2 25 12 13 18 14 17 8 -8 -6 -22 -4 -28 9 -28 10 0 13 5 9 18 -6 15 -5 15 11
3 11 -10 20 -11 24 -4 8 11 85 16 78 5 -3 -5 11 -9 30 -10 28 -2 36 2 43 20
l8 23 7 -22 c6 -19 10 -20 42 -10 27 8 40 8 56 -2 15 -9 23 -10 31 -2 16 16
47 13 47 -4 0 -18 17 -20 23 -2 2 8 27 12 75 12 40 0 72 4 72 9 0 5 8 2 18 -7
11 -10 22 -13 33 -7 16 10 57 0 114 -26 57 -27 131 -3 137 43 4 25 5 26 12 8
18 -49 47 -77 63 -62 4 5 1 12 -6 16 -10 7 -11 13 -2 30 7 12 17 19 23 15 5
-4 13 -2 17 5 5 7 17 8 40 1 17 -5 38 -7 44 -5 7 3 53 7 102 9 68 3 100 9 127
24 22 13 40 17 43 12 11 -18 20 -10 33 31 8 25 9 46 4 56 -12 21 -3 53 13 53
8 0 16 9 20 20 3 11 9 19 13 18 4 -1 17 3 30 10 19 11 23 10 28 -3 6 -16 34
-21 34 -6 0 4 11 6 25 3 14 -2 25 0 25 5 0 6 17 15 38 21 34 10 97 52 78 52
-4 0 -1 6 6 13 6 8 21 12 32 10 15 -3 24 3 31 19 6 13 17 23 26 23 8 0 28 13
43 28 19 19 34 26 47 22 14 -5 17 -3 13 10 -4 10 -2 15 6 13 7 -2 14 2 17 9
10 28 -35 16 -76 -19 -24 -21 -50 -38 -57 -38 -8 0 -14 -4 -14 -9 0 -5 -24
-15 -52 -22 -29 -6 -73 -21 -98 -31 -72 -31 -132 -41 -166 -27 -16 7 -33 11
-39 10 -5 -2 -18 -5 -29 -7 -10 -2 -24 -8 -31 -14 -7 -6 -19 -8 -28 -4 -9 3
-24 -3 -36 -15 -11 -11 -27 -18 -36 -15 -8 4 -15 2 -15 -4 0 -5 -20 -13 -45
-16 -24 -4 -47 -11 -50 -17 -4 -5 -17 -9 -31 -9 -14 0 -37 -6 -52 -13 -32 -16
-58 -16 -55 1 2 8 -4 9 -23 2 -25 -10 -26 -9 -19 17 3 16 14 36 22 46 22 23 2
22 -24 -2 -24 -22 -47 -13 -37 15 7 19 72 84 84 84 4 0 6 19 6 42 -1 33 5 47
27 70 28 27 28 30 13 53 -12 18 -13 30 -6 50 7 19 6 34 -5 55 -8 16 -15 39
-14 52 0 13 3 17 6 11 9 -23 22 -14 43 28 22 42 19 79 -6 79 -8 0 -14 -9 -14
-21 0 -15 -5 -20 -23 -17 -12 1 -36 -7 -53 -19 -17 -13 -34 -20 -38 -16 -3 3
-6 -1 -6 -10 0 -17 -36 -20 -57 -4 -7 5 -24 6 -38 3 -18 -5 -34 -1 -52 14 -14
11 -32 20 -39 20 -8 0 -13 3 -11 8 2 9 -38 62 -48 62 -3 0 -13 -7 -22 -15 -21
-21 -47 -15 -51 13 -2 12 -10 22 -19 22 -9 0 -13 6 -9 15 4 10 -5 20 -27 29
-18 8 -26 15 -19 15 8 1 11 8 7 20 -4 14 3 22 30 35 19 9 50 19 68 21 26 4 36
-1 58 -27 20 -24 30 -29 45 -23 10 4 22 7 27 7 4 -1 7 7 7 18 0 11 6 20 14 20
8 0 21 9 28 19 8 10 33 24 57 31 35 9 42 15 38 30 -3 11 -2 19 2 18 28 -3 33
4 29 52 -1 28 2 52 7 54 6 3 4 5 -2 5 -7 1 -13 10 -13 21 0 11 -4 20 -10 20
-5 0 -10 12 -10 26 0 14 -4 23 -9 19 -20 -12 -20 16 0 36 15 15 19 28 14 47
-3 15 -7 36 -9 47 -1 11 -10 22 -20 23 -11 3 -16 11 -14 25 2 17 9 21 26 19
20 -3 23 0 20 20 -2 17 1 22 15 20 10 -2 30 6 46 18 16 11 34 20 40 20 6 0 11
5 11 10 0 6 7 10 15 10 9 0 15 9 15 21 0 17 3 19 13 10 18 -14 30 -2 16 16
-15 17 18 18 58 1 15 -6 30 -12 33 -13 27 -9 46 -21 52 -31 5 -7 28 -24 52
-38 36 -21 54 -25 92 -21 26 2 51 8 57 14 12 12 -1 33 -15 25 -7 -5 -9 0 -5
15 7 28 -15 38 -49 22 -18 -8 -23 -8 -18 0 8 14 -14 29 -43 29 -12 0 -35 12
-52 26 -17 14 -37 27 -43 28 -7 2 -24 8 -38 13 -19 8 -26 7 -28 -3 -5 -19 -22
-18 -22 1 0 15 -11 19 -38 16 -7 -1 -19 5 -28 14 -9 8 -19 13 -23 10 -5 -2
-17 6 -29 18 -16 17 -30 21 -59 19 -21 -1 -59 -4 -85 -5 -26 -2 -50 -6 -53 -9
-8 -8 -55 15 -55 27 0 6 -4 4 -9 -4 -8 -12 -13 -12 -24 -3 -11 9 -22 10 -42 2
-15 -6 -30 -8 -35 -5 -5 3 -12 1 -15 -5 -4 -7 -11 -7 -18 -2 -20 15 -73 22
-85 10 -5 -5 -16 -7 -23 -3 -7 5 -36 8 -66 7 -29 0 -55 4 -59 9 -7 12 -24 12
-24 0 0 -5 9 -13 21 -16 26 -9 21 -41 -6 -38 -11 2 -48 4 -83 5 -35 1 -65 5
-68 10 -9 13 -24 9 -24 -7 0 -14 -11 -19 -37 -16 -17 2 -16 -7 2 -26 11 -10
26 -13 46 -9 17 3 39 1 49 -4 12 -6 21 -7 25 0 8 13 35 1 35 -16 0 -8 -7 -14
-15 -14 -8 0 -24 -5 -35 -12 -10 -7 -23 -9 -27 -5 -4 5 -2 11 5 16 6 4 -25 6
-71 5 -45 -1 -86 1 -90 4 -10 5 -173 3 -301 -3 -52 -3 -84 0 -93 7 -10 8 -17
8 -21 1 -9 -14 -82 -22 -107 -12 -11 4 -14 8 -7 8 7 1 10 6 7 11 -4 7 -12 7
-25 0 -21 -11 -87 -5 -162 16 -29 8 -69 16 -88 19 -19 2 -62 8 -95 13 -33 5
-67 6 -75 2 -26 -14 -109 -15 -122 -2 -15 15 -32 16 -22 1 3 -6 -5 -3 -20 6
-23 16 -27 16 -41 1 -18 -18 -30 -21 -20 -7 10 17 -13 21 -29 5 -9 -9 -21 -12
-28 -7 -19 12 -58 15 -58 5 0 -14 -121 -25 -133 -13 -16 16 -37 13 -31 -4 9
-21 -13 -19 -38 5 -22 20 -64 28 -53 10 8 -12 -5 -13 -25 0 -9 5 -17 5 -21 -1
-4 -6 -15 -6 -34 1 -31 12 -45 6 -27 -12 20 -20 14 -28 -23 -28 -19 0 -35 5
-35 10 0 6 -11 10 -24 10 -14 0 -28 5 -31 10 -3 6 -12 10 -18 10 -7 0 -1 -9
13 -19 13 -11 28 -17 32 -15 4 3 8 0 8 -5 0 -13 -27 -15 -34 -2 -3 5 -15 7
-25 4 -10 -3 -22 0 -25 6 -4 6 -2 11 3 11 6 0 11 4 11 9 0 8 -23 8 -59 2 -2
-1 2 -8 9 -16 9 -11 9 -15 1 -15 -6 0 -15 8 -18 18 -7 17 -22 32 -35 32 -4 0
-5 -7 -2 -15 7 -18 -9 -19 -36 -3 -10 7 -23 9 -27 5 -7 -7 8 -21 32 -30 6 -3
7 -7 4 -11 -10 -10 -59 15 -59 31 0 7 -5 13 -11 13 -5 0 -7 -5 -3 -11 5 -9 -1
-10 -20 -5 -18 4 -25 3 -21 -4 3 -5 2 -10 -4 -10 -5 0 -13 5 -16 10 -3 6 -11
10 -16 10 -6 0 -7 -4 -4 -10 8 -12 3 -13 -29 0 -23 8 -26 7 -26 -10 0 -24 -13
-26 -30 -5 -16 19 -44 19 -59 1 -13 -15 -45 -14 -65 3 -10 9 -53 13 -108 11
-10 -1 -18 -8 -18 -16 0 -19 -10 -18 -26 4 -8 10 -13 12 -14 5 0 -8 -14 -13
-37 -13 -20 0 -33 -3 -30 -7 13 -13 -27 -32 -46 -21 -13 7 -23 6 -30 -1 -14
-14 -37 -14 -37 0 0 6 10 19 23 30 12 10 17 18 10 19 -6 0 -18 -7 -27 -15 -8
-8 -19 -15 -25 -15 -6 0 -11 -7 -11 -15 0 -22 -18 -18 -25 5 -3 11 -11 20 -16
20 -15 0 -10 -22 8 -36 10 -7 15 -16 10 -20 -4 -4 -13 -2 -19 4 -7 7 -20 12
-30 12 -10 0 -17 5 -16 11 2 6 -3 14 -11 17 -10 3 -12 0 -8 -11 5 -14 3 -15
-13 -5 -15 10 -22 10 -31 1 -10 -10 -18 -9 -38 1 -25 13 -110 36 -132 36 -5 0
-7 -6 -3 -12 6 -9 3 -9 -9 0 -9 8 -21 11 -28 7 -6 -4 -25 3 -41 15 -17 13 -28
18 -24 12 11 -19 -38 -9 -52 10 -7 10 -26 18 -42 18 -16 0 -32 5 -35 10 -9 14
-41 12 -57 -2 -17 -16 -57 -16 -85 0 -18 10 -28 10 -44 1 -15 -8 -19 -8 -15 0
6 10 -21 17 -48 12 -4 -1 -19 5 -32 14 -28 18 -34 19 -34 4z m3010 -892 c0 -5
10 -7 21 -4 12 3 32 -1 45 -9 20 -14 26 -14 44 -1 14 9 17 17 11 22 -17 10 13
35 43 35 19 0 24 -4 19 -16 -4 -10 1 -17 16 -21 25 -6 28 -20 4 -20 -9 0 -27
12 -40 26 -22 26 -31 16 -14 -17 5 -9 14 -29 20 -44 6 -17 24 -33 47 -43 34
-14 38 -14 50 2 9 12 13 14 14 5 0 -7 4 -11 9 -8 13 8 6 -53 -7 -66 -8 -8 -13
-7 -18 5 -8 22 -24 22 -24 1 0 -12 -3 -14 -12 -6 -7 6 -26 12 -42 14 -31 3
-50 28 -22 28 21 0 20 7 -3 36 -11 14 -21 20 -23 13 -3 -9 -9 -9 -25 0 -33 17
-43 14 -43 -14 0 -14 -4 -25 -10 -25 -9 0 -15 29 -11 58 2 9 -4 12 -18 7 -13
-4 -23 0 -30 12 -9 16 -13 16 -32 5 -18 -12 -23 -12 -30 0 -6 9 -2 18 11 27
11 7 20 21 20 30 1 13 3 13 15 -3 8 -11 15 -24 15 -29z m205 -227 c8 0 15 -5
15 -11 0 -5 5 -7 10 -4 6 4 8 11 5 16 -4 5 -2 9 4 9 5 0 13 -5 16 -10 4 -6 10
-8 15 -5 11 7 70 -15 70 -26 0 -5 -8 -9 -19 -9 -10 0 -24 -7 -31 -16 -11 -12
-10 -18 3 -32 16 -15 17 -15 17 6 0 24 15 29 27 9 13 -22 43 -29 49 -12 4 8
10 12 16 9 5 -3 7 -11 5 -18 -3 -7 7 -13 25 -14 48 -4 107 -52 63 -52 -8 0
-15 5 -15 11 0 5 -5 7 -11 4 -5 -4 -20 -8 -32 -10 -12 -1 -34 -6 -49 -10 -18
-5 -28 -3 -28 4 0 7 -8 8 -23 2 -13 -5 -30 -5 -37 -1 -8 5 -21 5 -29 1 -18
-10 -159 -6 -191 4 -14 5 -25 2 -30 -6 -7 -10 -11 -10 -24 0 -8 7 -37 13 -63
14 -55 3 -73 11 -73 35 0 13 9 17 43 17 23 0 45 -4 50 -10 4 -6 13 -3 22 9 7
10 18 15 23 12 5 -3 15 1 22 9 11 13 15 14 29 2 19 -17 53 -18 63 -3 5 8 13 7
28 -2 21 -13 76 -8 96 9 10 8 9 15 -3 29 -16 19 -39 18 -28 -1 4 -5 2 -9 -4
-9 -5 0 -12 4 -16 9 -3 5 -48 8 -100 7 -52 -2 -95 0 -95 3 1 21 31 42 50 36
12 -4 27 -1 35 5 12 10 15 9 15 -3 0 -13 4 -13 25 -4 14 7 25 17 25 22 0 6 5
2 11 -7 5 -10 17 -18 24 -18z m-332 -109 c6 -25 -8 -49 -16 -27 -4 9 -11 16
-17 16 -16 0 -12 -40 6 -47 8 -3 13 -11 10 -18 -2 -7 2 -21 10 -32 12 -16 13
-16 8 0 -7 18 10 24 21 7 4 -6 10 -8 15 -5 4 3 13 -2 20 -10 10 -12 10 -18 0
-30 -7 -9 -11 -16 -9 -18 50 -28 51 -29 41 -11 -12 21 4 64 24 64 6 0 15 -11
18 -24 3 -13 13 -26 21 -30 18 -6 19 7 4 36 -6 11 -8 22 -6 24 8 8 34 -50 29
-64 -2 -7 -10 -12 -18 -12 -8 0 -14 -9 -14 -20 0 -11 -4 -20 -10 -20 -5 0 -10
4 -10 10 0 10 -27 9 -45 -2 -5 -3 -49 -9 -97 -13 l-87 -7 -16 38 c-16 39 -14
64 6 64 6 0 8 -7 5 -16 -10 -27 5 -37 19 -12 7 13 8 28 3 34 -14 18 2 46 23
41 12 -3 19 0 19 9 0 8 -4 14 -10 14 -5 0 -7 7 -4 15 5 11 -1 15 -25 15 -17 0
-31 4 -31 10 0 11 37 33 48 27 4 -3 16 -1 27 4 30 11 32 11 38 -10z"/>
<path d="M7216 6622 c-9 -16 15 -29 76 -42 33 -6 57 -16 55 -23 -1 -6 8 -13
21 -15 12 -2 27 -12 32 -23 6 -10 19 -19 29 -19 10 0 24 -7 31 -15 8 -10 21
-13 33 -9 15 5 19 3 14 -9 -5 -14 26 -28 70 -31 6 -1 20 -10 32 -20 13 -12 30
-17 51 -14 16 3 28 2 25 0 -2 -3 17 -16 43 -30 26 -13 55 -31 65 -40 14 -12
17 -13 17 -1 1 9 8 5 21 -10 17 -21 22 -22 30 -10 8 12 11 11 20 -4 7 -12 20
-17 38 -15 15 1 39 -5 53 -14 25 -16 44 -17 89 -3 12 4 19 2 19 -7 0 -13 59
-48 80 -48 5 0 29 -13 53 -30 56 -37 84 -39 93 -5 3 14 4 32 0 40 -3 8 -1 15
4 15 6 0 10 -7 10 -15 0 -8 5 -15 10 -15 6 0 10 -7 10 -15 0 -8 9 -15 20 -15
11 0 20 -4 20 -10 0 -5 6 -10 14 -10 8 0 17 -9 21 -19 6 -20 47 -33 102 -32
22 1 36 -5 43 -19 6 -11 19 -20 28 -20 19 0 42 -18 42 -33 0 -5 -7 -6 -16 -3
-9 4 -23 1 -30 -5 -11 -9 -14 -8 -14 4 0 14 -20 27 -41 27 -20 0 -8 -27 18
-41 29 -15 68 -49 56 -49 -4 0 -2 -5 5 -12 14 -14 16 -68 3 -68 -5 0 -12 18
-16 40 -7 43 -29 54 -40 19 -6 -17 -9 -18 -23 -7 -13 11 -15 10 -9 -11 4 -18
3 -21 -6 -12 -19 19 -39 13 -32 -9 4 -12 2 -20 -5 -20 -6 0 -9 4 -5 9 3 5 1
12 -5 16 -5 3 -10 1 -10 -4 0 -6 -7 -11 -15 -11 -9 0 -18 -7 -21 -15 -4 -8
-12 -15 -19 -15 -8 0 -20 -6 -27 -14 -8 -7 -23 -16 -35 -20 -11 -4 -23 -15
-26 -26 -3 -10 -13 -19 -23 -18 -22 1 -144 -40 -158 -53 -6 -5 -16 -9 -23 -9
-8 0 -30 -7 -51 -16 -20 -10 -43 -18 -50 -20 -7 -1 -31 -12 -53 -23 -22 -12
-54 -21 -72 -21 -18 0 -45 -7 -61 -15 -15 -8 -36 -15 -46 -15 -10 0 -25 -7
-34 -15 -8 -8 -22 -15 -31 -15 -11 0 -15 -5 -12 -14 4 -9 0 -12 -13 -9 -23 6
-35 -14 -20 -32 14 -16 50 -20 50 -6 0 5 14 12 30 16 17 4 36 13 44 20 12 13
56 24 125 30 l33 4 -21 -23 c-27 -28 -26 -37 2 -64 l24 -22 26 27 c41 44 55
54 62 43 10 -16 19 -12 66 30 31 28 45 35 47 25 4 -18 7 -18 33 -5 10 6 19 18
19 27 0 11 7 14 25 11 14 -3 25 -1 25 5 0 5 9 7 20 4 13 -3 20 0 20 9 0 14 12
16 111 19 55 1 123 31 115 50 -4 11 0 12 18 3 20 -8 28 -6 45 11 12 12 35 21
54 22 78 3 118 -1 138 -12 27 -14 123 -3 140 17 6 8 20 12 30 9 11 -4 19 0 22
12 4 14 5 13 6 -4 1 -23 15 -31 25 -15 6 10 62 8 88 -3 9 -4 21 -4 27 -1 5 4
12 2 16 -4 4 -6 11 -8 16 -5 5 4 9 1 9 -4 0 -16 27 -13 33 3 3 8 -4 21 -16 30
l-22 15 23 0 c13 1 33 -4 44 -10 14 -7 23 -8 27 -1 11 18 61 26 61 11 1 -9 4
-8 11 4 6 9 15 15 20 12 13 -9 79 56 79 77 0 10 -4 18 -9 18 -5 0 -2 18 6 40
14 35 14 44 2 66 -7 14 -26 32 -41 40 -15 8 -28 20 -28 26 0 11 -29 37 -42 38
-5 0 -8 -6 -8 -14 0 -9 -8 -12 -24 -9 -13 3 -27 0 -30 -6 -11 -17 -24 -13 -31
7 -6 21 -70 46 -102 40 -11 -1 -26 2 -34 8 -20 16 -105 24 -119 10 -6 -6 -15
-12 -20 -12 -6 -1 -15 -2 -21 -3 -5 0 -17 -17 -25 -36 -8 -20 -19 -33 -25 -29
-6 3 -20 -3 -32 -14 -17 -16 -34 -20 -72 -19 -56 2 -98 28 -77 49 13 13 -11
68 -31 68 -6 0 -23 6 -37 13 -79 40 -155 54 -189 33 -5 -3 -8 2 -7 12 1 12 -8
18 -26 20 -17 2 -28 -1 -28 -9 0 -7 -8 -2 -19 9 -10 12 -27 23 -37 25 -10 1
-23 5 -29 8 -5 3 -27 5 -47 5 -22 -1 -40 4 -43 12 -2 6 -11 12 -20 12 -8 0
-15 4 -15 9 0 5 -14 11 -32 13 l-32 5 28 -24 c16 -13 26 -27 23 -30 -3 -3 -18
7 -33 22 -21 21 -29 24 -36 13 -8 -10 -9 -9 -4 4 3 10 1 20 -5 24 -9 5 -65 12
-134 16 -33 1 -97 24 -159 56 -32 17 -64 28 -72 25 -8 -3 -14 1 -14 10 0 13
-23 24 -72 33 -9 2 -20 -1 -24 -7 -3 -6 -14 1 -24 19 -15 24 -26 30 -70 35
-29 4 -58 11 -66 18 -7 6 -18 8 -23 5 -6 -4 -19 1 -29 10 -25 21 -122 54 -122
41 0 -6 -9 -2 -19 7 -11 10 -22 13 -25 8z"/>
<path d="M4423 5975 c-7 -8 -13 -26 -13 -40 0 -26 -1 -26 -55 -20 -43 6 -58 4
-70 -8 -16 -16 -45 -13 -45 5 0 5 -6 6 -12 1 -22 -13 -37 -12 -31 3 8 21 -25
17 -39 -5 -9 -15 -15 -17 -30 -8 -13 9 -23 9 -36 1 -14 -9 -24 -9 -43 2 -32
18 -44 17 -29 -1 20 -24 9 -25 -35 -5 -43 20 -55 14 -55 -27 0 -28 -16 -30
-25 -3 -4 11 -10 18 -15 15 -5 -3 -14 5 -21 17 l-12 22 -9 -24 c-5 -15 -12
-20 -16 -14 -4 6 -20 14 -36 18 -26 6 -28 5 -23 -14 5 -21 5 -21 -14 -4 -18
16 -19 16 -13 1 7 -18 -11 -24 -21 -7 -9 15 -25 12 -25 -5 0 -20 -20 -19 -36
3 -13 16 -13 16 -14 -3 -1 -18 -4 -16 -26 10 -23 29 -24 29 -22 6 2 -13 -3
-26 -9 -28 -8 -3 -13 5 -13 20 0 23 -2 24 -36 17 -19 -5 -38 -10 -40 -13 -8
-8 98 -42 126 -41 14 0 29 -6 34 -14 7 -12 10 -12 17 -1 6 10 9 11 9 2 0 -7 4
-13 10 -13 5 0 7 7 4 15 -5 11 1 13 30 8 25 -4 36 -2 36 7 0 9 6 8 24 -3 26
-17 60 -16 62 1 3 25 5 27 14 12 7 -11 10 -11 10 -2 0 7 14 -2 31 -20 27 -29
31 -30 26 -10 -3 15 -1 22 9 22 10 0 13 7 8 25 -10 39 9 29 29 -15 10 -22 23
-37 28 -34 6 4 6 11 -1 18 -8 10 3 14 52 19 40 4 67 2 73 -5 7 -8 6 -8 -5 -3
-13 8 -13 7 -1 -8 18 -22 27 -21 34 2 3 14 11 18 26 14 15 -4 21 -1 21 10 0
14 3 14 28 2 15 -8 34 -12 44 -9 9 2 19 0 23 -6 11 -19 35 -11 35 12 l0 22 16
-22 c9 -13 20 -19 27 -15 7 4 17 8 22 10 6 1 20 5 32 9 16 4 25 1 29 -10 3 -9
11 -16 16 -16 6 0 8 6 5 14 -9 22 25 30 41 9 11 -13 16 -15 19 -5 4 10 8 10
18 2 9 -7 20 -8 32 -3 10 5 44 8 76 6 45 -2 57 0 57 12 0 8 7 15 15 15 8 0 15
-6 15 -14 0 -28 84 7 99 42 6 13 16 20 21 17 6 -3 10 0 10 8 0 24 -23 26 -62
7 -26 -12 -40 -14 -47 -7 -8 8 -11 6 -11 -6 0 -20 -8 -21 -29 -4 -9 7 -28 18
-42 24 -26 11 -27 11 -16 -17 6 -16 7 -33 3 -37 -5 -4 -11 -3 -13 3 -2 6 -10
20 -18 30 -13 16 -16 17 -24 4 -6 -8 -12 -12 -14 -10 -2 3 -12 16 -21 30 l-18
25 6 -27 c6 -25 4 -28 -21 -28 -21 0 -24 -3 -13 -10 8 -5 11 -12 7 -16 -3 -4
-13 -2 -21 5 -11 9 -15 9 -19 -1 -3 -8 -9 -1 -16 15 -6 16 -15 26 -20 22 -6
-3 -15 4 -21 15 -13 23 -20 25 -37 5z"/>
<path d="M2648 5861 c-19 -9 -33 -22 -31 -28 3 -7 -2 -13 -11 -13 -9 0 -16 -4
-16 -10 0 -5 7 -10 15 -10 8 0 15 -4 15 -9 0 -5 16 -9 35 -8 37 2 41 10 25 51
-13 34 6 35 22 2 6 -14 17 -27 24 -30 17 -7 17 -1 3 27 -12 22 -12 22 9 4 11
-11 18 -25 15 -33 -4 -11 5 -14 35 -14 23 0 42 -5 45 -12 7 -22 20 0 22 37 1
36 -11 47 -50 49 -11 1 -23 -3 -27 -8 -4 -7 -15 -6 -30 1 -41 20 -64 21 -100
4z"/>
<path d="M1440 5861 c0 -5 -10 -9 -22 -9 -128 1 -273 -16 -284 -33 -3 -5 3 -9
13 -9 11 0 25 -6 32 -12 10 -11 12 -10 9 2 -1 9 0 17 5 18 4 1 7 -1 6 -4 -2
-16 28 -22 47 -9 18 12 23 11 38 -3 11 -11 16 -12 16 -4 0 9 5 10 19 2 20 -10
37 -7 78 12 16 8 29 6 53 -6 18 -8 36 -13 41 -11 4 3 26 1 48 -4 26 -6 41 -5
41 1 0 5 13 7 30 3 20 -4 35 -2 45 9 21 20 19 23 -16 41 -23 12 -38 14 -62 7
-50 -15 -93 -14 -107 3 -14 17 -30 20 -30 6z"/>
<path d="M4266 5799 c5 -9 0 -10 -20 -5 -29 7 -34 -5 -11 -24 21 -18 19 -32
-5 -25 -15 5 -20 2 -20 -11 0 -10 3 -14 7 -11 3 4 12 2 20 -4 9 -9 13 -8 13 0
0 17 28 13 39 -6 6 -10 11 -12 11 -5 0 6 6 12 14 12 8 0 16 5 18 12 3 7 11 9
24 3 33 -14 48 -11 66 15 14 20 18 21 18 8 0 -10 7 -18 15 -18 8 0 15 -5 15
-10 0 -6 11 -8 28 -4 15 4 31 7 37 8 5 0 16 7 24 14 21 20 0 35 -32 23 -20 -8
-30 -7 -42 6 -11 10 -26 13 -45 10 -17 -4 -30 -2 -32 5 -5 15 -39 19 -54 7 -6
-5 -18 -7 -25 -5 -45 14 -70 16 -63 5z"/>
<path d="M7090 5711 c0 -12 6 -21 14 -21 28 0 67 -41 64 -68 -3 -28 -28 -44
-28 -18 0 9 -7 16 -15 16 -16 0 -21 -39 -6 -55 4 -6 0 -17 -10 -27 -14 -13
-19 -14 -19 -4 0 8 -8 12 -23 9 -18 -4 -25 2 -35 31 -7 20 -17 36 -22 36 -9 0
-7 -22 5 -52 6 -16 -6 -21 -84 -31 -18 -2 -27 -27 -10 -27 6 0 17 -6 23 -14
13 -17 58 -22 101 -12 84 19 105 28 105 42 0 12 10 14 52 10 42 -3 55 -1 68
14 17 20 108 50 150 50 19 0 30 7 38 25 7 14 23 30 37 35 32 12 32 37 1 51
-20 9 -34 7 -80 -16 -30 -15 -59 -24 -64 -21 -6 3 -15 0 -21 -8 -24 -29 -61
-28 -109 2 -26 15 -66 38 -89 51 -43 22 -43 22 -43 2z"/>
<path d="M4190 5581 c0 -6 5 -11 11 -11 6 0 9 -5 7 -12 -4 -12 -19 -16 -88
-24 -25 -2 -49 -5 -55 -5 -5 -1 -22 2 -37 6 -22 6 -28 4 -28 -9 0 -20 -14 -21
-30 -1 -9 11 -16 12 -25 5 -7 -6 -20 -7 -30 -4 -10 4 -20 1 -25 -6 -7 -11 -11
-11 -24 -1 -13 11 -16 11 -16 -3 0 -21 -9 -20 -26 2 -9 12 -13 13 -14 3 0 -9
-8 -11 -26 -7 -19 5 -30 2 -40 -11 -8 -11 -13 -13 -14 -5 0 15 -32 16 -48 0
-9 -9 -12 -9 -12 0 0 7 -4 12 -10 12 -17 0 -11 -18 12 -40 12 -11 16 -20 10
-20 -7 0 -12 -7 -12 -15 0 -19 19 -19 26 0 6 15 49 12 68 -6 24 -22 150 -4
168 23 4 8 18 7 46 -6 22 -10 45 -15 51 -12 6 4 20 2 31 -4 13 -7 20 -7 20 0
0 5 6 10 14 10 8 0 16 6 19 13 3 10 9 10 26 0 28 -17 33 -16 26 6 -3 12 0 21
9 24 10 4 13 1 9 -9 -7 -19 21 -18 37 1 10 12 16 13 27 4 16 -14 28 -6 19 13
-30 66 -76 119 -76 89z"/>
</g>
</svg>
